<?xml version="1.0" encoding="UTF-8"?>
<svg xmlns="http://www.w3.org/2000/svg" viewBox="0 0 516.22 126.13">
  <defs>
    <style>
      .cls-1, .cls-2, .cls-3, .cls-4 {
        mix-blend-mode: multiply;
      }

      .cls-1, .cls-2, .cls-3, .cls-5, .cls-6, .cls-7 {
        stroke-width: 0px;
      }

      .cls-1, .cls-7 {
        fill: #ef4136;
      }

      .cls-2, .cls-5 {
        fill: #27aae1;
      }

      .cls-3, .cls-6 {
        fill: #39b54a;
      }

      .cls-8 {
        isolation: isolate;
      }
    </style>
  </defs>
  <g class="cls-8">
    <g id="Layer_2" data-name="Layer 2">
      <g id="Layer_1-2" data-name="Layer 1">
        <polygon class="cls-2" points="72.82 40.61 49.38 0 7.5 0 72.82 113.14 138.15 0 96.27 0 72.82 40.61"/>
        <polygon class="cls-1" points="102.06 12.99 72.82 63.62 43.59 12.99 15 12.99 80.32 126.13 145.65 12.99 102.06 12.99"/>
        <polygon class="cls-3" points="72.82 63.62 43.59 12.99 0 12.99 65.32 126.13 130.65 12.99 102.06 12.99 72.82 63.62"/>
        <g class="cls-4">
          <path class="cls-7" d="M160.22,17.14h13.85l-20.36,92.36h-13.85l20.36-92.36Z"/>
          <path class="cls-7" d="M172.96,98.15l63.84-68.82h-48.6l2.63-12.19h67.44l-2.35,11.35-64.11,68.82h49.85l-2.77,12.19h-68.41l2.49-11.35Z"/>
          <path class="cls-7" d="M318.91,90.39h-45.28l-11.63,19.11h-15.92l57.05-92.36h17.31l16.34,92.36h-14.54l-3.32-19.11ZM280.41,78.07h37.25l-7.89-48.47-29.36,48.47Z"/>
          <path class="cls-7" d="M387.58,73.92h-18.14l-7.75,35.59h-13.85l20.36-92.36h35.59c13.85,0,26.86,9.28,26.86,24.65,0,17.03-11.91,29.63-28.94,31.43l15.37,36.28h-15.23l-14.26-35.59ZM416.11,43.04c0-8.03-7.2-13.71-14.68-13.71h-22.02l-7.2,32.4h23.26c13.16,0,20.63-8.31,20.63-18.69Z"/>
          <path class="cls-7" d="M473.16,73.92h-18.14l-7.75,35.59h-13.85l20.36-92.36h35.59c13.85,0,26.86,9.28,26.86,24.65,0,17.03-11.91,29.63-28.94,31.43l15.37,36.28h-15.23l-14.26-35.59ZM501.68,43.04c0-8.03-7.2-13.71-14.68-13.71h-22.02l-7.2,32.4h23.26c13.16,0,20.63-8.31,20.63-18.69Z"/>
        </g>
        <g class="cls-4">
          <path class="cls-5" d="M160.22,17.14h13.85l-20.36,92.36h-13.85l20.36-92.36Z"/>
          <path class="cls-5" d="M172.96,98.15l63.84-68.82h-48.6l2.63-12.19h67.44l-2.35,11.35-64.11,68.82h49.85l-2.77,12.19h-68.41l2.49-11.35Z"/>
          <path class="cls-5" d="M318.91,90.39h-45.28l-11.63,19.11h-15.92l57.05-92.36h17.31l16.34,92.36h-14.54l-3.32-19.11ZM280.41,78.07h37.25l-7.89-48.47-29.36,48.47Z"/>
          <path class="cls-5" d="M387.58,73.92h-18.14l-7.75,35.59h-13.85l20.36-92.36h35.59c13.85,0,26.86,9.28,26.86,24.65,0,17.03-11.91,29.63-28.94,31.43l15.37,36.28h-15.23l-14.26-35.59ZM416.11,43.04c0-8.03-7.2-13.71-14.68-13.71h-22.02l-7.2,32.4h23.26c13.16,0,20.63-8.31,20.63-18.69Z"/>
          <path class="cls-5" d="M473.16,73.92h-18.14l-7.75,35.59h-13.85l20.36-92.36h35.59c13.85,0,26.86,9.28,26.86,24.65,0,17.03-11.91,29.63-28.94,31.43l15.37,36.28h-15.23l-14.26-35.59ZM501.68,43.04c0-8.03-7.2-13.71-14.68-13.71h-22.02l-7.2,32.4h23.26c13.16,0,20.63-8.31,20.63-18.69Z"/>
        </g>
        <g class="cls-4">
          <path class="cls-6" d="M160.22,17.14h13.85l-20.36,92.36h-13.85l20.36-92.36Z"/>
          <path class="cls-6" d="M172.96,98.15l63.84-68.82h-48.6l2.63-12.19h67.44l-2.35,11.35-64.11,68.82h49.85l-2.77,12.19h-68.41l2.49-11.35Z"/>
          <path class="cls-6" d="M318.91,90.39h-45.28l-11.63,19.11h-15.92l57.05-92.36h17.31l16.34,92.36h-14.54l-3.32-19.11ZM280.41,78.07h37.25l-7.89-48.47-29.36,48.47Z"/>
          <path class="cls-6" d="M387.58,73.92h-18.14l-7.75,35.59h-13.85l20.36-92.36h35.59c13.85,0,26.86,9.28,26.86,24.65,0,17.03-11.91,29.63-28.94,31.43l15.37,36.28h-15.23l-14.26-35.59ZM416.11,43.04c0-8.03-7.2-13.71-14.68-13.71h-22.02l-7.2,32.4h23.26c13.16,0,20.63-8.31,20.63-18.69Z"/>
          <path class="cls-6" d="M473.16,73.92h-18.14l-7.75,35.59h-13.85l20.36-92.36h35.59c13.85,0,26.86,9.28,26.86,24.65,0,17.03-11.91,29.63-28.94,31.43l15.37,36.28h-15.23l-14.26-35.59ZM501.68,43.04c0-8.03-7.2-13.71-14.68-13.71h-22.02l-7.2,32.4h23.26c13.16,0,20.63-8.31,20.63-18.69Z"/>
        </g>
      </g>
    </g>
  </g>
</svg>